# xmcd CD database file
#
# Track frame offsets:
#	150
#	19055
#	42479
#	71332
#	96741
#	116200
#	131802
#	149446
#	159929
#	187160
#	206421
#	220998
#	243565
#	264183
#
# Disc length: 3805 seconds
#
# Revision: 0
# Processed by: cddbd v1.5.2PL0 Copyright (c) Steve Scherf et al.
# Submitted via: CDex 1.50
#
DISCID=da0edb0e
DTITLE=Hattler - The Big Flow
DYEAR=2006
DGENRE=Jazz
TTITLE0=Waiting
TTITLE1=So Low
TTITLE2=Scion
TTITLE3=Assalamu Alaikum
TTITLE4=Mourning Son
TTITLE5=Sesame
TTITLE6=Didgeridoo
TTITLE7=Zimt
TTITLE8=Salaud
TTITLE9=Believer
TTITLE10=Marseille
TTITLE11=The Big Flow
TTITLE12=Bon Ami
TTITLE13=Sugar Chat
EXTD=YEAR: 2006
EXTT0=
EXTT1=
EXTT2=
EXTT3=
EXTT4=
EXTT5=
EXTT6=
EXTT7=
EXTT8=
EXTT9=
EXTT10=
EXTT11=
EXTT12=
EXTT13=
PLAYORDER=
